<svg xmlns="http://www.w3.org/2000/svg" viewBox="0 0 512 512">
  <rect width="512" height="512" rx="96" fill="#0f172a"/>
  <g transform="translate(96 96)" fill="none" stroke="#60a5fa" stroke-width="16" stroke-linejoin="round" stroke-linecap="round">
    <rect x="0" y="32" width="320" height="288" fill="#1e3a8a"/>
    <line x1="0" y1="96" x2="320" y2="96"/>
    <line x1="0" y1="160" x2="320" y2="160"/>
    <line x1="0" y1="224" x2="320" y2="224"/>
    <line x1="0" y1="288" x2="320" y2="288"/>
    <line x1="64" y1="0" x2="64" y2="32"/>
    <line x1="160" y1="0" x2="160" y2="32"/>
    <line x1="256" y1="0" x2="256" y2="32"/>
    <line x1="64" y1="32" x2="64" y2="96"/>
    <line x1="64" y1="96" x2="64" y2="160"/>
    <line x1="64" y1="160" x2="64" y2="224"/>
    <line x1="64" y1="224" x2="64" y2="288"/>
    <line x1="64" y1="288" x2="64" y2="320"/>
    <line x1="160" y1="32" x2="160" y2="96"/>
    <line x1="160" y1="96" x2="160" y2="160"/>
    <line x1="160" y1="160" x2="160" y2="224"/>
    <line x1="160" y1="224" x2="160" y2="288"/>
    <line x1="160" y1="288" x2="160" y2="320"/>
    <line x1="256" y1="32" x2="256" y2="96"/>
    <line x1="256" y1="96" x2="256" y2="160"/>
    <line x1="256" y1="160" x2="256" y2="224"/>
    <line x1="256" y1="224" x2="256" y2="288"/>
    <line x1="256" y1="288" x2="256" y2="320"/>
  </g>
  <text x="256" y="464" font-family="system-ui, -apple-system, sans-serif" font-size="56" font-weight="900" fill="#ffffff" text-anchor="middle" letter-spacing="-2">InmoControl</text>
</svg>
